<svg xmlns="http://www.w3.org/2000/svg" width="21" height="21" viewBox="0 0 21 21">
  <path id="Icon" d="M986.517,56.871a10.075,10.075,0,0,1-.246,2.235,9.9,9.9,0,0,1-.677,2.082,10.248,10.248,0,0,1-1.087,1.856,11.358,11.358,0,0,1-1.436,1.6h.021l-.349.287a.313.313,0,0,1-.051.041.615.615,0,0,1-.072.041,2.074,2.074,0,0,1-.226.195q-.123.093-.267.195a.532.532,0,0,0-.092.062c-.034.028-.072.055-.113.082-.1.069-.195.133-.3.195s-.2.12-.3.174a.315.315,0,0,1-.082.062l-.082.041-.349.195q-.164.092-.349.174a.085.085,0,0,0-.041.01.148.148,0,0,0-.041.031,11.006,11.006,0,0,1-1.22.461,11.314,11.314,0,0,1-1.282.318H977.8q-.205.041-.41.072t-.41.051h-.123q-.205.02-.42.031t-.42.01q-.226,0-.431-.01t-.431-.031h-.1q-.205-.021-.42-.051c-.143-.02-.284-.045-.42-.072h-.062a10.311,10.311,0,0,1-1.312-.328,12.2,12.2,0,0,1-1.23-.472c-.014-.014-.024-.021-.031-.021s-.017-.007-.031-.02c-.123-.055-.243-.113-.359-.174s-.236-.127-.359-.195a.249.249,0,0,0-.062-.041.222.222,0,0,1-.061-.041q-.164-.1-.328-.195a3.251,3.251,0,0,1-.308-.195.482.482,0,0,0-.092-.072.454.454,0,0,1-.092-.072l-.287-.205a2.108,2.108,0,0,1-.267-.226.171.171,0,0,0-.041-.031.092.092,0,0,0-.041-.01l-.328-.287V64.6a11.087,11.087,0,0,1-1.415-1.579,10.557,10.557,0,0,1-1.077-1.866,10.786,10.786,0,0,1-.913-4.286,10.217,10.217,0,0,1,.82-4.081,10.769,10.769,0,0,1,5.6-5.6,10.562,10.562,0,0,1,8.162,0,10.769,10.769,0,0,1,5.6,5.6,10.221,10.221,0,0,1,.82,4.081Zm-20.241,0a9.484,9.484,0,0,0,1.907,5.763,10.467,10.467,0,0,0,1.333,1.476,1.176,1.176,0,0,0,.154-.092c.048-.034.092-.065.133-.092l3.015-1.641a.97.97,0,0,0,.328-.318.807.807,0,0,0,.123-.441V60.439q-.185-.246-.564-.892A6.352,6.352,0,0,1,972.08,58a1.423,1.423,0,0,1-.513-1.087V55.559a1.313,1.313,0,0,1,.092-.482,1.389,1.389,0,0,1,.256-.421V52.872a5.715,5.715,0,0,1,.041-.841,2.461,2.461,0,0,1,.677-1.395,3.349,3.349,0,0,1,1.384-.9,6.654,6.654,0,0,1,4,0,3.352,3.352,0,0,1,1.384.9,2.461,2.461,0,0,1,.677,1.395,5.777,5.777,0,0,1,.041.841v1.784a1.389,1.389,0,0,1,.256.421,1.308,1.308,0,0,1,.092.482v1.354a1.364,1.364,0,0,1-.215.748,1.305,1.305,0,0,1-.584.5,7.584,7.584,0,0,1-.441,1.025,9.266,9.266,0,0,1-.564.943l-.123.164c-.041.055-.075.1-.1.143v1.128a.861.861,0,0,0,.123.451.763.763,0,0,0,.349.308l3.22,1.62c.055.028.113.058.174.092a1.557,1.557,0,0,1,.174.113,9.878,9.878,0,0,0,1.354-1.476,9.374,9.374,0,0,0,1.036-1.743,10.744,10.744,0,0,0,.667-1.948,9.814,9.814,0,0,0,.225-2.112,9.375,9.375,0,0,0-.779-3.794,9.752,9.752,0,0,0-5.168-5.168,9.626,9.626,0,0,0-7.588,0,9.753,9.753,0,0,0-5.168,5.168,9.37,9.37,0,0,0-.779,3.794Z" transform="translate(-965.517 -46.371)" fill="#fff"/>
</svg>
