<svg xmlns="http://www.w3.org/2000/svg" width="21" height="21" viewBox="0 0 21 21">
                <path id="Icon" d="M874.333,66.3a.619.619,0,0,1,0,.882.435.435,0,0,1-.205.143.775.775,0,0,1-.246.041.592.592,0,0,1-.226-.051.628.628,0,0,1-.205-.133l-5.106-5.107a9.211,9.211,0,0,1-2.687,1.61,9,9,0,0,1-6.665-.113,9.074,9.074,0,0,1-4.778-4.778,9.012,9.012,0,0,1,0-6.952,9.072,9.072,0,0,1,4.778-4.778,9.009,9.009,0,0,1,6.952,0A9.338,9.338,0,0,1,868.806,49a8.849,8.849,0,0,1,1.917,2.851,9,9,0,0,1,.113,6.665,9.211,9.211,0,0,1-1.61,2.686ZM854.768,55.333a7.425,7.425,0,0,0,.615,2.994,7.669,7.669,0,0,0,1.641,2.441,7.89,7.89,0,0,0,2.461,1.661,7.545,7.545,0,0,0,2.994.595,7.642,7.642,0,0,0,2.994-.595,7.959,7.959,0,0,0,2.44-1.661,7.677,7.677,0,0,0,1.641-2.441,7.427,7.427,0,0,0,.615-2.994,7.335,7.335,0,0,0-.615-2.994,7.593,7.593,0,0,0-4.081-4.1,7.427,7.427,0,0,0-2.994-.615,7.333,7.333,0,0,0-2.994.615,7.541,7.541,0,0,0-4.1,4.1,7.333,7.333,0,0,0-.615,2.994Z" transform="translate(-853.517 -46.371)" fill="#fff"/>
              </svg>