<svg xmlns="http://www.w3.org/2000/svg" width="42.003" height="40.462" viewBox="0 0 42.003 40.462">
    <path id="_" data-name="" d="M426.336,490.065a5.289,5.289,0,0,1,.123.718,7.376,7.376,0,0,1,.041.759,6.512,6.512,0,0,1-.451,2.44,4.923,4.923,0,0,1-1.271,1.866,1.681,1.681,0,0,1-.164.144,1.123,1.123,0,0,1-.164.1,3.865,3.865,0,0,1-.964.513,3.068,3.068,0,0,1-1.046.185,3.18,3.18,0,0,1-1.087-.185,3.845,3.845,0,0,1-.964-.513,1.069,1.069,0,0,1-.164-.1,1.561,1.561,0,0,1-.164-.144,5.376,5.376,0,0,1-1.251-1.866,6.255,6.255,0,0,1-.472-2.44,7.24,7.24,0,0,1,.041-.759,5.105,5.105,0,0,1,.123-.718q.615-2.665.964-5.209t.472-4.962h-8.7a.632.632,0,0,1-.656-.656V457.662a.661.661,0,0,1,.185-.451.608.608,0,0,1,.472-.205h9.27a4.158,4.158,0,0,1,3.076,1.292,4.214,4.214,0,0,1,1.272,3.056v16.693q0,1.805.164,3.692t.451,3.814a.612.612,0,0,1-.123.472.647.647,0,0,1-.451.266.607.607,0,0,1-.472-.123.623.623,0,0,1-.266-.41q-.288-2.009-.451-3.937t-.164-3.774V461.354a2.951,2.951,0,0,0-.882-2.133,2.9,2.9,0,0,0-2.153-.9H411.9v1.313h3.609a.662.662,0,0,1,.451.184.608.608,0,0,1,.205.472.706.706,0,0,1-.656.656H411.9v1.846h7.875a.706.706,0,0,1,.656.656.607.607,0,0,1-.205.472.662.662,0,0,1-.451.185H411.9v1.887h7.875a.66.66,0,0,1,.451.184.607.607,0,0,1,.205.472.706.706,0,0,1-.656.656H411.9v1.846h7.875a.662.662,0,0,1,.451.184.645.645,0,0,1,0,.943.659.659,0,0,1-.451.185H411.9v1.887h7.875a.661.661,0,0,1,.451.185.608.608,0,0,1,.205.472.564.564,0,0,1-.205.43.66.66,0,0,1-.451.185H411.9V475.5h7.875a.66.66,0,0,1,.451.184.645.645,0,0,1,0,.943.661.661,0,0,1-.451.185H411.9v1.764h8.7a.52.52,0,0,1,.267.061c.068.041.143.089.225.144a.524.524,0,0,1,.123.205.788.788,0,0,1,.041.246,44.4,44.4,0,0,1-.431,5.455q-.39,2.789-1.046,5.66c-.028.191-.055.39-.082.594a4.463,4.463,0,0,0-.041.6,5.2,5.2,0,0,0,.369,1.948,3.5,3.5,0,0,0,1.025,1.456h.041a2.316,2.316,0,0,0,.636.39,1.871,1.871,0,0,0,.718.144,1.777,1.777,0,0,0,.677-.144,2.334,2.334,0,0,0,.636-.39h.041a3.5,3.5,0,0,0,1.025-1.456,5.194,5.194,0,0,0,.369-1.948q0-.287-.021-.6a2.907,2.907,0,0,0-.1-.594q-.165-.615-.287-1.23l-.246-1.231a.651.651,0,0,1,.1-.472.581.581,0,0,1,.431-.266.5.5,0,0,1,.472.082.827.827,0,0,1,.308.41q.082.615.205,1.21t.287,1.21Zm-6.111-30.249a.608.608,0,0,1,.205.472.706.706,0,0,1-.656.656h-2.133a.605.605,0,0,1-.472-.205.659.659,0,0,1-.185-.451.631.631,0,0,1,.656-.656h2.133A.662.662,0,0,1,420.224,459.815ZM409.7,488.137a3.855,3.855,0,1,1-5.455,0,3.813,3.813,0,0,1,5.455,0Zm-.923,4.532a2.523,2.523,0,0,0,.738-1.825,2.476,2.476,0,0,0-.738-1.784,2.525,2.525,0,0,0-3.609,0,2.477,2.477,0,0,0-.738,1.784,2.523,2.523,0,0,0,.738,1.825,2.526,2.526,0,0,0,3.609,0Zm4.471-2.03a6.313,6.313,0,0,1-1.764,4.594,6.51,6.51,0,0,1-2.051,1.395,6.186,6.186,0,0,1-2.461.492,6.269,6.269,0,0,1-6.029-4.594.118.118,0,0,1-.041-.082l-2.01-8.654-2.051,8.654a.12.12,0,0,1-.041.082,5.882,5.882,0,0,1-2.235,3.322,6.3,6.3,0,0,1-6.234.78,6.438,6.438,0,0,1-2.071-1.395,6.312,6.312,0,0,1-1.764-4.594,6.083,6.083,0,0,1,1.764-4.1,5.974,5.974,0,0,1,4.02-1.928,5.575,5.575,0,0,1,.82-.02,5.658,5.658,0,0,1,.82.1l.779-.123a4.8,4.8,0,0,0,2.666-1.354l.533-1.722-2.051-11.239a.606.606,0,0,1,.123-.471.626.626,0,0,1,.41-.267.521.521,0,0,1,.492.082.87.87,0,0,1,.287.41l2.01,11.074,1.928.738.41.164a.508.508,0,0,1,.226.164.725.725,0,0,1,.143.287l2.3,9.639v.041a4.767,4.767,0,0,0,1.764,2.686,4.839,4.839,0,0,0,3.035,1.046,4.751,4.751,0,0,0,1.948-.41,5.323,5.323,0,0,0,1.62-1.107,4.629,4.629,0,0,0,1.087-1.682,5.058,5.058,0,0,0,.308-1.968,4.671,4.671,0,0,0-1.395-3.241,4.746,4.746,0,0,0-3.158-1.518,4.307,4.307,0,0,0-.718-.02,4.6,4.6,0,0,0-.718.1h-.246l-.861-.164a6.249,6.249,0,0,1-1.928-.635,6.012,6.012,0,0,1-1.6-1.21.445.445,0,0,1-.082-.123.5.5,0,0,0-.082-.123l-.615-2.009-2.3-7.424-4.8-15.545a1.832,1.832,0,0,0-.144.615,3.464,3.464,0,0,0,.021.656l1.436,7.834a.667.667,0,0,1-.1.492.756.756,0,0,1-.431.287.608.608,0,0,1-.472-.123.62.62,0,0,1-.267-.41l-1.435-7.834a3.864,3.864,0,0,1,.143-1.887,3.327,3.327,0,0,1,1.046-1.558.609.609,0,0,1,.287-.164.685.685,0,0,1,.328,0,.63.63,0,0,1,.451.452l4.594,14.765,4.553-14.765a.629.629,0,0,1,.451-.452.685.685,0,0,1,.328,0,.613.613,0,0,1,.287.164,3.325,3.325,0,0,1,1.046,1.558,3.873,3.873,0,0,1,.144,1.887l-3.855,21.205.533,1.722a4.8,4.8,0,0,0,2.666,1.354l.779.123a5.638,5.638,0,0,1,.82-.1,5.578,5.578,0,0,1,.82.02,5.975,5.975,0,0,1,4.02,1.928,6.088,6.088,0,0,1,1.764,4.1Zm-8.818-30.6a3.563,3.563,0,0,0,.021-.656,1.854,1.854,0,0,0-.144-.615l-4.758,15.34,1.436,4.676Zm-6.644,22.682-.779-.328-.41,1.353a.468.468,0,0,0-.082.123.476.476,0,0,1-.082.123,6.03,6.03,0,0,1-1.6,1.21,6.26,6.26,0,0,1-1.928.635l-.861.164H391.8l-.513-.082a3.436,3.436,0,0,0-.513-.041.959.959,0,0,0-.185.02.919.919,0,0,1-.184.02,4.783,4.783,0,0,0-3.2,1.518,4.668,4.668,0,0,0-1.395,3.241,4.81,4.81,0,0,0,.328,1.968,5.164,5.164,0,0,0,1.066,1.682,5.315,5.315,0,0,0,1.62,1.107,4.749,4.749,0,0,0,1.948.41,4.84,4.84,0,0,0,3.035-1.046,4.77,4.77,0,0,0,1.764-2.686v-.041Zm-7.014,4.265a3.685,3.685,0,0,1,2.728,1.149,3.856,3.856,0,1,1-5.455,0,3.684,3.684,0,0,1,2.727-1.149Zm1.8,5.681a2.523,2.523,0,0,0,.738-1.825,2.477,2.477,0,0,0-.738-1.784,2.525,2.525,0,0,0-3.609,0,2.477,2.477,0,0,0-.738,1.784,2.523,2.523,0,0,0,.738,1.825,2.526,2.526,0,0,0,3.609,0Z" transform="translate(-384.497 -456.658)" fill="#fff"/>
    </svg>