<svg xmlns="http://www.w3.org/2000/svg" width="42" height="42" viewBox="0 0 42 42">
  <path id="_" data-name="" d="M571.105,460.912a1.4,1.4,0,0,1,1.395,1.394V465.1a1.367,1.367,0,0,1-.205.739,1.315,1.315,0,0,1-.533.492l-1.272,27.522a2.31,2.31,0,0,1-.677,1.456,1.982,1.982,0,0,1-1.456.595H534.683a2.05,2.05,0,0,1-1.477-.595,2,2,0,0,1-.615-1.5v-2.092a2.127,2.127,0,0,1-1.477-.677,2.082,2.082,0,0,1-.615-1.5v-1.353a2.084,2.084,0,0,1,.615-1.5,2.134,2.134,0,0,1,1.477-.677v-.739a4.835,4.835,0,0,1-.8-.41,3.037,3.037,0,0,1-.677-.574,2.982,2.982,0,0,1-.513-1.046,2.411,2.411,0,0,1-.021-1.128,2.619,2.619,0,0,1,.718-1.374,2.9,2.9,0,0,1,1.292-.759v-1.6h-.7a1.4,1.4,0,0,1-1.395-1.394v-.7a5.175,5.175,0,0,1,1.067-3.158,9.02,9.02,0,0,1,2.994-2.42,16.774,16.774,0,0,1,4.635-1.559,28.917,28.917,0,0,1,5.988-.574q1.6,0,3.035.143t2.748.39l-.123-2.789a1.306,1.306,0,0,1-.533-.492,1.36,1.36,0,0,1-.205-.739v-2.789a1.4,1.4,0,0,1,1.394-1.394h9.106v-3.527a.775.775,0,0,1,.062-.308.5.5,0,0,1,.185-.225l.082-.082,4.922-2.789a.789.789,0,0,1,.533-.062.674.674,0,0,1,.451.349.57.57,0,0,1,.062.533.7.7,0,0,1-.349.41L562,457.836v3.076ZM551.5,462.307V465.1h19.606v-2.789Zm-17.514,23.707h22.395v-.7a1.783,1.783,0,0,1-.656-.225,3.8,3.8,0,0,1-.574-.39,1.531,1.531,0,0,1-.492-.615,6.53,6.53,0,0,1-.287-.779h-2.256a2.588,2.588,0,0,1-.964,1.5,2.748,2.748,0,0,1-1.743.594,2.641,2.641,0,0,1-1.743-.594,3.133,3.133,0,0,1-1-1.5h-2.994a2.588,2.588,0,0,1-.964,1.5,2.808,2.808,0,0,1-1.784.594,2.664,2.664,0,0,1-1.723-.594,2.836,2.836,0,0,1-.984-1.5h-2.174a3.92,3.92,0,0,1-.328.779,2.77,2.77,0,0,1-.451.615,2.629,2.629,0,0,1-.595.39,3.258,3.258,0,0,1-.677.225Zm24.856-5.619a3.078,3.078,0,0,1,.738.882,2.648,2.648,0,0,1,.328,1.128q.369.083.7.143a3.748,3.748,0,0,0,.7.062,4.678,4.678,0,0,0,3.466-1.435,4.782,4.782,0,0,0,1.415-3.487,4.832,4.832,0,0,0-4.881-4.88,5.257,5.257,0,0,0-2.3.533.175.175,0,0,0,.021.082.3.3,0,0,0,.061.082,5.181,5.181,0,0,1,.574,1.21,5.284,5.284,0,0,1,.246,1.292v.984a1.4,1.4,0,0,1-1.394,1.394h-.7v1.477a2.344,2.344,0,0,1,.533.226q.246.144.492.307Zm-26.947-4.1v.7h26.619v-.7a3.51,3.51,0,0,0-.144-.984,4.446,4.446,0,0,0-.431-.984,6.477,6.477,0,0,0-1.764-1.8,13.034,13.034,0,0,0-2.83-1.353,19.29,19.29,0,0,0-3.691-.861,32.983,32.983,0,0,0-4.471-.287,29.889,29.889,0,0,0-5.373.451,16.63,16.63,0,0,0-4.2,1.292,8.258,8.258,0,0,0-2.727,1.989,3.819,3.819,0,0,0-.984,2.543Zm2.092,2.092v1.395h22.395v-1.395Zm-1.723,4.963a1.326,1.326,0,0,0,.492.43,1.343,1.343,0,0,0,.615.144,2.018,2.018,0,0,0,.492-.061,1.433,1.433,0,0,0,.718-.677,1.7,1.7,0,0,0,.1-.574.654.654,0,0,1,.205-.513.71.71,0,0,1,.492-.185h3.527a.712.712,0,0,1,.492.185.655.655,0,0,1,.205.513,1.395,1.395,0,0,0,2.789,0,.654.654,0,0,1,.205-.513.71.71,0,0,1,.492-.185h4.225a.712.712,0,0,1,.492.185.655.655,0,0,1,.205.513,1.395,1.395,0,0,0,2.789,0,.64.64,0,0,1,.7-.7h3.486a.64.64,0,0,1,.7.7,1.444,1.444,0,0,0,.123.574,1.128,1.128,0,0,0,.328.451.779.779,0,0,0,.656.328.285.285,0,0,0,.123-.02.285.285,0,0,1,.123-.021,1.579,1.579,0,0,0,1.005-.451,1.4,1.4,0,0,0,.472-.9,1.43,1.43,0,0,0-.472-.943,1.325,1.325,0,0,0-.923-.41H533.453a1.709,1.709,0,0,0-.984.308,1.041,1.041,0,0,0-.492.8,1.568,1.568,0,0,0,.041.636.736.736,0,0,0,.246.39Zm-.369,6.235a.64.64,0,0,0,.226.492.788.788,0,0,0,.554.205h25.143a.772.772,0,0,0,.738-.738v-1.353a.779.779,0,0,0-.226-.533.682.682,0,0,0-.513-.246H532.674a.836.836,0,0,0-.779.861Zm2.092,4.225a.7.7,0,0,0,.7.7h21a.654.654,0,0,0,.513-.205.711.711,0,0,0,.185-.492v-2.092H533.986Zm35.068,0,1.354-27.316H552.279l.123,2.953a15.2,15.2,0,0,1,3.261,1.169,9.948,9.948,0,0,1,2.4,1.662,5.3,5.3,0,0,1,1.579-.718,6.711,6.711,0,0,1,1.743-.226,6.023,6.023,0,0,1,4.45,1.846,6.126,6.126,0,0,1,1.825,4.471,6.283,6.283,0,0,1-1.887,4.512A6.09,6.09,0,0,1,561.3,484a5.434,5.434,0,0,1-.841-.062q-.39-.062-.8-.143a2.891,2.891,0,0,1-.738.964,2.731,2.731,0,0,1-1.107.595v.656a2.117,2.117,0,0,1,1.518.636,2.065,2.065,0,0,1,.656,1.538v1.353q-.041.206-.082.39a2.562,2.562,0,0,1-.123.39,2.008,2.008,0,0,1-.738,1,2.258,2.258,0,0,1-1.23.431v2.092a.188.188,0,0,1-.021.082.175.175,0,0,0-.021.082,1.515,1.515,0,0,1-.021.246,1.732,1.732,0,0,1-.061.246h10.664a.7.7,0,0,0,.7-.7Z" transform="translate(-530.5 -453.899)" fill="#ffa337"/>
</svg>
